<?xml version="1.0" encoding="UTF-8" standalone="no"?>
<!-- Created with Inkscape (http://www.inkscape.org/) -->

<svg
   xmlns:dc="http://purl.org/dc/elements/1.1/"
   xmlns:cc="http://creativecommons.org/ns#"
   xmlns:rdf="http://www.w3.org/1999/02/22-rdf-syntax-ns#"
   xmlns:svg="http://www.w3.org/2000/svg"
   xmlns="http://www.w3.org/2000/svg"
   version="1.1"
   width="100%"
   height="100%"
   viewBox="0 0 67.439696 67.852391"
   id="svg2">
  <title
     id="title4">magicWand</title>
  <desc
     id="desc6">Created with Sketch.</desc>
  <metadata
     id="metadata30">
    <rdf:RDF>
      <cc:Work
         rdf:about="">
        <dc:format>image/svg+xml</dc:format>
        <dc:type
           rdf:resource="http://purl.org/dc/dcmitype/StillImage" />
        <dc:title>magicWand</dc:title>
      </cc:Work>
    </rdf:RDF>
  </metadata>
  <defs
     id="defs28" />
  <g
     transform="translate(0.26205425,0.21414768)"
     id="g8"
     style="fill:none;stroke:none">
    <g
       transform="translate(-1360,-40)"
       id="g10"
       style="stroke:#000000">
      <g
         transform="translate(1352,31)"
         id="g12">
        <path
           d="m 27.003577,39.670785 -10.185384,5.434346 c -1.40597,0.750146 -2.324385,0.09217 -2.049966,-1.477472 L 16.766716,32.19652 8.4763016,24.141086 C 7.3319096,23.02913 7.68336,21.946242 9.2581776,21.722828 L 20.676849,20.102907 25.746055,9.6744344 c 0.69451,-1.4287607 1.818977,-1.4319637 2.515044,0 l 5.069205,10.4284726 11.418672,1.619921 c 1.57621,0.223611 1.934376,1.298423 0.781876,2.418258 l -8.290415,8.055434 1.99849,11.431139 c 0.273804,1.566131 -0.634035,2.232933 -2.049966,1.477472 L 27.003577,39.670785 z"
           transform="matrix(0.74314483,-0.66913061,0.66913061,0.74314483,-11.135732,25.007049)"
           id="path14"
           style="stroke-width:2" />
        <path
           d="m 27.951847,35.578145 -6.111231,3.260608 c -0.843581,0.450087 -1.39463,0.0553 -1.228186,-0.896739 l 1.197301,-6.848428 -4.974249,-4.833261 c -0.686636,-0.667173 -0.483302,-1.315837 0.469125,-1.450954 l 6.851203,-0.971953 3.036976,-6.247728 c 0.419218,-0.862423 1.095934,-0.868534 1.518122,0 l 3.036975,6.247728 6.851203,0.971953 c 0.945726,0.134166 1.160626,0.779053 0.469126,1.450954 l -4.974249,4.833261 1.197301,6.848428 c 0.165273,0.945343 -0.378628,1.350015 -1.228187,0.896739 l -6.11123,-3.260608 z"
           transform="matrix(0.74314483,-0.66913061,0.66913061,0.74314483,-11.542932,25.890957)"
           id="path16"
           style="stroke-width:1.60000002" />
        <path
           d="m 38.363137,42.951253 3.538944,-3.469847"
           id="path18"
           style="stroke-width:2" />
        <path
           d="m 34.670287,39.4387 35.577958,34.924713 c 0.391331,0.384145 1.009501,0.363692 1.384151,-0.04946 l 1.272207,-1.402964 C 73.277719,72.499522 73.267,71.839282 72.881227,71.436887 L 38.589085,35.667178"
           id="path20"
           style="stroke-width:2" />
      </g>
    </g>
  </g>
</svg>
