<svg xmlns="http://www.w3.org/2000/svg" viewBox="0 0 850.39 850.39"><defs><style>.cls-1,.cls-3{fill:#fff;}.cls-2{fill:#eac01e;}.cls-3{fill-rule:evenodd;}</style></defs><title>Artboard 1</title><g id="Layer_2" data-name="Layer 2"><rect width="850.39" height="850.39"/></g><g id="Layer_1" data-name="Layer 1"><path class="cls-1" d="M651.31,260.8s-3.57,1.12-6.34-.26-3.91-6.33-3.91-6.33c1.88-.49,8.31,2.16,10.25,6.59Zm-13.21,46c10.56,2.64,23,10.31,28.94,11s12.87-5.93,18.81-9.24S706,300,706,295.32s-45.53-33.65-45.53-33.65-.48-10.77-2.33-13.43c-2.58-3.73-16.15-12.3-16.15-12.3l-23.32-33.05a1.48,1.48,0,0,0-2.58.31l-2.47,6.35-20.1-15.62a1.28,1.28,0,0,0-2,.83l-4.57,31.37a16.55,16.55,0,0,0-7.27-2c-3.65-.08-8.81.24-8.81.24l.84,1a8.48,8.48,0,0,1,1.74,3.53l.14.66s-13.49-2.79-18.06-3-18.78,1.54-18.78,1.54l1.45,1.14a18.06,18.06,0,0,1,5.52,7.3l-10-1.32,2.47,1.94a13.88,13.88,0,0,1,4.57,6.38l.38,1.08L534,244a49.22,49.22,0,0,0-10.08,0l-6.34.69,1.4.82a27.15,27.15,0,0,1,6.72,5.54l.29.33s-21.62,11.38-53.94,15.34-96.68,5.52-113.82,14.76-44.21,21-55.43,22.35-32.33,1.4-43.55-1.89c-7.57-2.23-26-16-38.35-23.84a44.1,44.1,0,0,0-11.79-5.2l.39,1.91a9.42,9.42,0,0,1-1.05,6.67s-59-28.42-66.56-28.42a1.66,1.66,0,0,0-.42,0c-5.27,1.33-10.88-3.29-10.88-3.29s-1.46,28.42,3.83,39a36.48,36.48,0,0,0,14,15.13l-.14.05a15,15,0,0,1-8.23.36l-1.71-.41s9.42,11.22,17.34,15.83a129.78,129.78,0,0,0,16.49,7.93,15.81,15.81,0,0,1-8.54,3.64l-2.68.28s20.46,15.21,35,21.15,35.64,16.16,35.64,16.16-15.84,28.7-21.77,32.67-18.48,17.15-18.48,17.15-13.85-.66-19.8,3.31c-1.91,1.26-6.42,2.62-7.95,3.48a6,6,0,0,0-1.26,9.42c3.56,3.57,12.81,6.76,24.48,5.73,22.43-2,42.72-26.47,48-34.39s14.6-28.45,19.89-28.45S306.77,383,308.77,387c1.19,2.45-7.09,12.17-16.33,14.82s-26.08,4.89-30.69,6.87-7.75,20.54-12.38,25.82-15.25,13.28-16.57,19.21-9.26,9-12.37,21.54c-1.4,5.59-3.72,8.9-2.59,16.13.77,4.87,6.8,9.11,13.47,5.88,7.35-3.53,18.06-17.89,19.38-23.17s25.66-46.27,33.57-49.57,48.92-13.11,68.7-23,37.45-31.92,50.07-39.34c8.29-4.88,56.83.41,62.1,5.69s0,11.88,0,11.88l2.37.87a28.66,28.66,0,0,0,13,1.64l5.12-.54-.13.24a19.05,19.05,0,0,1-6.92,7.06l-2.19,1.29a73.18,73.18,0,0,0,17.74,5.52,75.33,75.33,0,0,0,20.54-.25v.8a19,19,0,0,1-3.33,10.72l-1,1.48a44.13,44.13,0,0,0,15,5.31c19,3.43,48.75,6.76,46.1,10.73-4,5.93-13.19,5.93-23.75,10.55s-40.26,17.81-31,27.71,23.76,5.94,34.31,2.64,58-29.6,57.41-36.95-21.41-20-21.41-20,25.37-1.08,41.2,8.82,22.37,28.27,31.51,35.88c10.39,8.67,16.66,11.63,27.88,9.65.11,0,3.12-1.28,3.23-1.3a9.22,9.22,0,0,0,5.26-15c-4.18-4.9-13.84-10.68-23.26-17.55-17.15-12.55-19-17-26.93-24.23,0,0-7.79-7.86-24.29-16.43s-37.6-13.78-37.6-13.78l-.59-3.1a47,47,0,0,1,.92-21.46l1.64-5.87.09.28a45.1,45.1,0,0,1,1.82,11l.07,1.9,3.63-7a26.73,26.73,0,0,0,3-10.41l.64-8.41L596,333a23.7,23.7,0,0,1,2.72,6.43l1.06,4.11,2.14-8.6a34.66,34.66,0,0,0,.93-10.83l-.42-5.65s5.93-2.64,14.51-5.94,10.64-8.32,21.2-5.69Z"/><path class="cls-1" d="M163.15,503.87V476.39H153.3L113.54,523v7h17.13v61c0,25.41,14.56,41,43.76,41,8.85,0,19.13-2,24.19-6.06V599.8A36.06,36.06,0,0,1,184,603.3c-14.06,0-20.84-5.57-20.84-19.42V530h34.48V503.87ZM322.52,624.43V596c-8.28,6-22.63,10.28-36.76,10.28-26.2,0-40.54-9.78-44.54-27.7H327.3a89.11,89.11,0,0,0,1.07-14.84c0-34-20.91-63.17-56.67-63.17-41,0-64.24,30.69-64.24,66.16,0,38.83,24.91,67,74.8,67,13.56,0,31.19-3.28,40.26-9.35ZM296.61,556H240.72c2.78-17.42,13.35-28.2,29.69-28.2,14.63,0,24.2,11.07,26.2,28.2Zm98.21-24.42-56.18,95.65v3.29h101.5l8.57-27.7h-60l56.39-95.72v-3.21H347.21l-8.57,27.69Z"/><path class="cls-2" d="M462,630.5h32.47V570L540.6,630.5h40.55l-52.18-67,51.68-59.67h-39l-47.11,54.89V449.69H462V630.5Zm233.43-6.07V596c-8.28,6-22.63,10.28-36.76,10.28-26.2,0-40.55-9.78-44.54-27.7h86.08a89.11,89.11,0,0,0,1.07-14.84c0-34-20.91-63.17-56.67-63.17-41,0-64.24,30.69-64.24,66.16,0,38.83,24.91,67,74.8,67,13.56,0,31.19-3.28,40.26-9.35ZM669.54,556H613.65c2.78-17.42,13.35-28.2,29.69-28.2,14.63,0,24.2,11.07,26.2,28.2Zm53.1,74.52h32.48V449.69H722.64V630.5Z"/><path class="cls-3" d="M519.52,239.86c-3.18.63-.82,2.66-8.34,4.16.23,1.16.53,7.92-.15,8.8a5.58,5.58,0,0,1-2,1.59c-1.79.93-13.55,4.7-15.36,5.46l-6,2.25c-5.17,1.73,3-.82-2.41.28-11.75,2.33-26.5,2.66-38.33,3.74-6.72.62-19.86,1.6-24.34,1.84-1.24,0,.28.06-2.84.14-2.64.07-8,1.42-8.54,1.42-6.09,0-17.89.79-19.08-.07-4-2.9-3.36-5.33-5.51-10-2.38-5.1-2.14-14.88-1.48-21.57.29-3,9.59-14.87,11.87-15.46,1-.24,1.53-.5,2.77-.74,2.38-.57,6,.3,9.44-.49,4.29-1,8.53-3.7,12.26-4.86a3.12,3.12,0,0,1,3.52,1.67c2.06,4.33,4,7.64,3.82,9.34-.23,2-35.8,8-43.68,10.54,0,0-.14,3.42-.09,3.49.4.51,46.44-11.49,48.78-12.56s15-4.22,15.42-4.33c1.13-.3,7.39-2.48,10.66-1.42,7.56,2.43,30.25,6.5,39.61,8.61,1.26.28,4.24,11.1,4.8,12.89a9.23,9.23,0,0,0,1.92,3.62c.71.17-3.23-15.2-3.53-16.41-.8-3.34-4.7-4.1-4.31-4.12,1.07-.05-27.06-4.47-36.9-7.68-1.36-.44-2.78-.92-4.24-1.42l-3.45-1.21c-1.54-.55,5.71-4.17,13.21-5,10.27-.41,15.78-3.19,20.41,2.46,3.31,4.21,20.18,8.65,22.27,12.9-.49.1-.29,2.54.29,6.74.22,1.58.28.67.41,1.33,1.16-.2,7.26-3.37,9.64-3.07,1,.12,2,6-.55,7.09Z"/></g></svg>