<svg id="Layer_1" data-name="Layer 1" xmlns="http://www.w3.org/2000/svg" viewBox="0 0 850.4 850.4"><defs><style>.cls-1{fill:#029dcd;}.cls-2{fill:#fff;}</style></defs><title>Artboard 1</title><g id="Layer_2" data-name="Layer 2"><rect class="cls-1" width="850.4" height="850.4"/></g><g id="Layer_1-2" data-name="Layer 1"><path class="cls-2" d="M706.43,326.84s-4.43,1.36-7.76-.37-4.81-7.76-4.81-7.76C696.08,318.1,704.09,321.42,706.43,326.84Zm-16.26,56.69c13.06,3.2,28.34,12.69,35.61,13.55s15.89-7.27,23.16-11.33,24.89-10.6,24.89-16.39S717.77,328,717.77,328s-.62-13.3-2.84-16.51c-3.2-4.56-20-15.16-20-15.16L666.26,255.5a1.8,1.8,0,0,0-2.59-.37,2.17,2.17,0,0,0-.61.86L660,263.88l-24.77-19.23A1.58,1.58,0,0,0,633,245c-.12.25-.25.37-.25.62l-5.66,38.69a20.44,20.44,0,0,0-9-2.46c-4.56-.13-10.84.24-10.84.24l1,1.24a10.78,10.78,0,0,1,2.1,4.31l.12.86s-16.63-3.45-22.3-3.69S565,286.67,565,286.67l1.85,1.36a22.35,22.35,0,0,1,6.78,9l-12.33-1.6,3.08,2.34a17.41,17.41,0,0,1,5.67,7.89l.5,1.36-8.63-.87a70,70,0,0,0-12.45,0l-7.76.87,1.73,1a33.72,33.72,0,0,1,8.25,6.78l.37.37S525.42,329.19,485.61,334s-119.15,6.78-140.22,18.24-54.47,25.88-68.27,27.6-39.8,1.73-53.6-2.34c-9.37-2.71-32-19.72-47.32-29.33a53.06,53.06,0,0,0-14.54-6.41l.49,2.35a11.33,11.33,0,0,1-1.35,8.25s-72.7-35-82.07-35h-.49c-6.53,1.6-13.43-4.07-13.43-4.07s-1.85,35,4.68,48.06A44.85,44.85,0,0,0,86.74,380h-.12a18.83,18.83,0,0,1-10.11.5l-2.09-.5S86,393.75,95.74,399.42a153,153,0,0,0,20.33,9.74,19.52,19.52,0,0,1-10.48,4.43l-3.32.37s25.26,18.73,43.13,26,43.86,20,43.86,20-19.47,35.36-26.86,40.29-22.8,21.07-22.8,21.07-17.12-.86-24.39,4.07c-2.35,1.6-7.89,3.2-9.74,4.31a7.33,7.33,0,0,0-2.71,10.1,14.61,14.61,0,0,0,1.11,1.48c4.44,4.44,15.77,8.38,30.19,7,27.6-2.47,52.62-32.66,59.15-42.39s18-35.12,24.52-35.12,64.2,6.41,66.66,11.34c1.48,3.08-8.75,15-20.08,18.23s-32.17,6-37.83,8.51-9.62,25.26-15.28,31.79S192.34,557,190.74,564.3s-11.46,11.09-15.28,26.49c-1.72,6.9-4.56,11-3.2,19.84,1,6,8.38,11.21,16.63,7.27,9.12-4.31,22.31-22.06,23.91-28.59s31.67-57,41.4-61.12,60.26-16.14,84.66-28.34,46.2-39.31,61.73-48.43c10.23-6,70,.5,76.52,7s0,14.66,0,14.66l3,1.11a35.25,35.25,0,0,0,16,2l6.28-.62-.12.25a23.17,23.17,0,0,1-8.5,8.75l-2.71,1.6A91.16,91.16,0,0,0,512.85,493a86.6,86.6,0,0,0,25.26-.37v1A23.76,23.76,0,0,1,534,506.75l-1.23,1.85a51.83,51.83,0,0,0,18.48,6.53c23.42,4.19,60.14,8.38,56.81,13.18-4.93,7.27-16.27,7.27-29.33,12.94s-49.66,21.94-38.2,34.14,29.33,7.27,42.27,3.2,71.47-36.47,70.73-45.59-26.37-24.65-26.37-24.65S658.5,507,678,519.2s27.6,34.87,38.81,44.23c12.82,10.72,20.58,14.3,34.38,11.83.12,0,3.82-1.6,3.94-1.6a11.44,11.44,0,0,0,9-13.31,11.85,11.85,0,0,0-2.46-5.17c-5.18-6-17-13.19-28.72-21.57-21.19-15.4-23.41-20.94-33.14-29.82,0,0-9.61-9.73-29.95-20.21s-46.33-16.51-46.33-16.51l-.74-3.82a58.45,58.45,0,0,1,1.11-26.49l2-7.27.13.37a51.17,51.17,0,0,1,2.21,13.55l.13,2.34,4.43-8.62a33.29,33.29,0,0,0,3.7-12.82l.74-10.35,1,1.73a31.8,31.8,0,0,1,3.32,7.88l1.36,5.06,2.59-10.6a40.57,40.57,0,0,0,1.1-13.31l-.49-6.9s7.27-3.2,17.87-7.27,13.31-10.23,26.25-7Z"/><path class="cls-2" d="M544,301.09c-3.94.74-1,3.33-10.22,5.18.24,1.47.61,9.73-.13,10.84a6.46,6.46,0,0,1-2.46,2c-2.22,1.11-16.64,5.79-19,6.78l-7.39,2.83c-6.41,2.1,3.69-1-3,.37-14.54,2.84-32.65,3.33-47.19,4.56-8.26.74-24.53,2-29.95,2.22-1.48,0,.37.12-3.45.12-3.2.13-9.86,1.73-10.47,1.73-7.52,0-22.06,1-23.54-.13-4.93-3.57-4.19-6.53-6.77-12.32-3-6.28-2.59-18.36-1.85-26.61.37-3.7,11.83-18.36,14.66-19.1,1.23-.25,1.85-.62,3.45-.87,3-.74,7.39.37,11.58-.61,5.3-1.23,10.48-4.56,15.16-6a3.88,3.88,0,0,1,4.31,2.09c2.59,5.3,4.93,9.37,4.69,11.46-.25,2.47-44.12,9.86-53.85,12.94,0,0-.13,4.19-.13,4.32.5.61,57.18-14.17,60.14-15.53s18.48-5.18,19-5.3c1.36-.37,9.12-3.08,13.19-1.72,9.36,3,37.33,8,48.79,10.59,1.61.37,5.18,13.68,5.92,15.9a11.74,11.74,0,0,0,2.34,4.43c.86.25-3.94-18.72-4.31-20.2-1-4.07-5.79-5.06-5.3-5.06,1.35-.12-33.39-5.54-45.47-9.48-1.73-.5-3.45-1.11-5.18-1.73l-4.31-1.48c-1.85-.74,7-5.17,16.27-6.16,12.69-.49,19.47-3.94,25.13,3.08,4.07,5.18,24.9,10.6,27.48,15.9-.61.12-.37,3.08.37,8.25.25,2,.37.87.5,1.61,1.47-.25,9-4.19,11.83-3.82,1,.24,2.21,7.51-.87,9Z"/></g></svg>