<?xml version="1.0" encoding="UTF-8"?>
<!DOCTYPE svg PUBLIC "-//W3C//DTD SVG 1.1//EN" "http://www.w3.org/Graphics/SVG/1.1/DTD/svg11.dtd">
<!-- Creator: CorelDRAW 2020 (64-Bit) -->
<svg xmlns="http://www.w3.org/2000/svg" xml:space="preserve" width="1411px" height="341px" version="1.1" style="shape-rendering:geometricPrecision; text-rendering:geometricPrecision; image-rendering:optimizeQuality; fill-rule:evenodd; clip-rule:evenodd"
viewBox="0 0 1411 341"
 xmlns:xlink="http://www.w3.org/1999/xlink"
 xmlns:xodm="http://www.corel.com/coreldraw/odm/2003">
 <defs>
  <style type="text/css">
   <![CDATA[
    .fil2 {fill:#07876D}
    .fil0 {fill:#079D80}
    .fil1 {fill:#DBDBDB}
    .fil3 {fill:#079D80;fill-rule:nonzero}
   ]]>
  </style>
 </defs>
 <g id="Слой_x0020_1">
  <metadata id="CorelCorpID_0Corel-Layer"/>
  <path class="fil0" d="M185 1c34.151,0 66.148,8.458 93.63,23.213 -24.13,1.786 -42.13,4.787 -55.13,15.787 37,2 69.772,9.517 98.886,27.758 29.114,18.241 98.114,65.241 140.114,67.241 41.999,2.001 47,1.001 73,-2 -6.795,14.597 -37,55 -81.716,85.306 -40.463,27.423 -85.065,20.747 -97.549,18.186 -15.235,-4.991 -23.573,-25.243 -26.735,-29.492 0,0 7,-2.999 11,-6 4,-3 9,-10.999 9,-10.999 0,0 -13.5,-3.501 -25.5,-11.5 -12,-8 -21,-17 -21,-17 0,0 8,0.999 18,-3.001 10,-3.999 11,-11 11.5,-12.5 -4.5,1.5 -11,-1.999 -21,-5 -10,-3 -29.5,-24.5 -53.5,-31.5 -24,-7 -47.5,-5.5 -47.5,-5.5 0,0 -5.5,-5.499 -7,-19.999 -1.5,-14.501 3,-26 3,-26 0,0 -21.5,9.499 -31,16.999 -9.5,7.501 -17,23 -17,23 0,0 -39,2.001 -52,11 -13,9 -18,30 -20,33.001 -2,3 -61,19 -64,24 -3,4.999 9,48 38,58.999 29,11 69,-8.999 125,1.001 44.578,7.96 34.343,82.77 28.314,112.958 -9.391,1.342 -19.013,2.042 -28.814,2.042 -102.449,0 -185.5,-76.112 -185.5,-170 0,-93.889 83.051,-170 185.5,-170zm-69.5 145.999c3.333,-3.666 5.778,-6.356 9.112,-10.023 5.666,-0.667 12.221,-2.31 17.888,-2.977 -2,3.667 -4.737,8.689 -8.5,10.5 -6.336,3.05 -9.111,2.34 -18.5,2.5z"/>
  <path class="fil1" d="M127 333.5c12.767,-9.644 33.394,-28.74 35.5,-50.501 2.106,-21.761 -15.839,-47.65 -26.129,-59.872 14.84,-0.954 31.661,-0.836 49.629,2.373 44.578,7.958 36.186,83.541 29,114 -9.39,1.342 -20.199,2 -30,2 -20.227,0 -39.775,-2.516 -58,-8z"/>
  <path class="fil2" d="M75.182 146.617c20.818,-72.782 87.843,-126.055 167.311,-126.055 12.257,0 24.219,1.268 35.761,3.679 0.125,-0.01 0.251,-0.019 0.376,-0.028 -27.482,-14.755 -59.479,-23.213 -93.63,-23.213 -102.449,0 -185.5,76.111 -185.5,170 0,75.637 53.9,139.736 128.419,161.799 1.401,-1.076 2.884,-2.259 4.418,-3.539 -30.825,-25.238 -52.829,-60.849 -60.682,-101.502 -3.889,-0.53 -7.604,-1.412 -11.155,-2.759 -29,-10.999 -41,-54 -38,-58.999 2.212,-3.688 34.879,-13.357 52.682,-19.383z"/>
  <path class="fil3" d="M635.856 91.623l0 -35.885 -12.84 0 -52.016 60.905 0 9.219 22.387 0 0 79.67c0,33.251 19.094,53.663 57.284,53.663 11.522,0 25.02,-2.634 31.605,-7.901l0 -34.239c-5.926,2.963 -13.498,4.609 -19.095,4.609 -18.436,0 -27.325,-7.243 -27.325,-25.35l0 -70.452 45.103 0 0 -34.239 -45.103 0zm208.395 157.695l0 -37.201c-10.864,7.901 -29.63,13.498 -48.066,13.498 -34.238,0 -53.004,-12.84 -58.271,-36.215l112.592 0c0.988,-5.267 1.317,-13.497 1.317,-19.423 0,-44.444 -27.325,-82.634 -74.074,-82.634 -53.662,0 -83.951,40.165 -83.951,86.584 0,50.7 32.593,87.573 97.778,87.573 17.778,0 40.823,-4.28 52.675,-12.182zm-33.91 -89.547l-73.086 0c3.621,-22.716 17.449,-36.872 38.848,-36.872 19.095,0 31.605,14.485 34.238,36.872zm128.396 -31.934l-73.416 125.103 0 4.28 132.675 0 11.193 -36.214 -78.354 0 73.746 -125.103 0 -4.28 -128.066 0 -11.194 36.214 73.416 0zm87.901 129.383l42.469 0 0 -79.013 60.247 79.013 53.004 0 -68.148 -87.572 67.489 -78.025 -51.028 0 -61.564 71.769 0 -142.551 -42.469 0 0 236.379zm305.185 -7.902l0 -37.201c-10.864,7.901 -29.63,13.498 -48.066,13.498 -34.238,0 -53.004,-12.84 -58.271,-36.215l112.592 0c0.988,-5.267 1.317,-13.497 1.317,-19.423 0,-44.444 -27.325,-82.634 -74.074,-82.634 -53.662,0 -83.951,40.165 -83.951,86.584 0,50.7 32.593,87.573 97.778,87.573 17.778,0 40.823,-4.28 52.675,-12.182zm-33.91 -89.547l-73.086 0c3.621,-22.716 17.449,-36.872 38.848,-36.872 19.095,0 31.605,14.485 34.238,36.872zm69.466 97.449l42.469 0 0 -236.379 -42.469 0 0 236.379z"/>
 </g>
</svg>
